<svg xmlns:inkscape="http://www.inkscape.org/namespaces/inkscape" xmlns:sodipodi="http://sodipodi.sourceforge.net/DTD/sodipodi-0.dtd" xmlns="http://www.w3.org/2000/svg" xmlns:svg="http://www.w3.org/2000/svg" id="svg2" width="896" height="241.34666" viewBox="0 0 896 241.34666" sodipodi:docname="JayPrecisionLogo.eps"><defs id="defs6"></defs><g id="g8" inkscape:groupmode="layer" inkscape:label="ink_ext_XXXXXX" transform="matrix(1.3333333,0,0,-1.3333333,0,241.34667)"><g id="g10" transform="scale(0.1)"><path d="m 3134.72,369.859 h 64.85 v 370.469 h -64.85 z m 131.27,0 h 61.74 v 272.403 h 1.56 l 168.63,-272.403 h 68.49 v 370.469 h -61.74 V 467.41 h -1.05 l -169.14,272.918 h -68.49 z m 366.82,0 h 153.59 c 28.36,0 52.93,4.84 73.68,14.532 20.75,9.679 37.69,22.91 50.85,39.687 13.13,16.774 22.91,36.402 29.3,58.891 6.41,22.48 9.61,46.519 9.61,72.121 0,25.601 -3.2,49.629 -9.61,72.121 -6.39,22.48 -16.17,42.109 -29.3,58.898 -13.16,16.77 -30.1,30 -50.85,39.692 -20.75,9.668 -45.32,14.527 -73.68,14.527 h -153.59 z m 64.87,317.539 h 63.81 c 25.25,0 45.92,-3.367 62.01,-10.117 16.08,-6.742 28.71,-16.082 37.88,-28.019 9.16,-11.934 15.38,-25.934 18.67,-42.024 3.28,-16.078 4.93,-33.468 4.93,-52.148 0,-18.68 -1.65,-36.051 -4.93,-52.149 -3.29,-16.082 -9.51,-30.082 -18.67,-42.019 -9.17,-11.934 -21.8,-21.281 -37.88,-28.024 -16.09,-6.738 -36.76,-10.109 -62.01,-10.109 h -63.81 z m 299.37,-317.539 h 64.85 v 370.469 h -64.85 z m 90.8,0 h 66.94 l 34.75,98.063 h 147.88 l 34.77,-98.063 h 69.52 l -142.69,370.469 h -69 z m 175.37,306.653 h 1.56 l 55.51,-159.301 h -113.1 z m 337.26,-306.653 h 64.86 v 142.172 h 98.58 c 26.29,0 47.73,3.707 64.34,11.149 16.6,7.441 29.4,16.859 38.4,28.281 8.98,11.418 15.13,23.777 18.42,37.098 3.28,13.312 4.92,25.679 4.92,37.101 0,11.418 -1.64,23.871 -4.92,37.352 -3.29,13.5 -9.44,25.949 -18.42,37.367 -9,11.41 -21.8,20.91 -38.4,28.531 -16.61,7.61 -38.05,11.418 -64.34,11.418 h -163.44 z m 64.86,317.539 h 95.99 c 8.64,0 16.77,-0.859 24.38,-2.589 7.61,-1.739 14.35,-4.93 20.24,-9.598 5.88,-4.672 10.54,-10.992 14,-18.941 3.46,-7.961 5.2,-17.981 5.2,-30.09 0,-11.77 -2,-21.539 -5.97,-29.321 -3.98,-7.781 -9.17,-14.007 -15.57,-18.679 -6.4,-4.668 -13.4,-8.039 -21.01,-10.121 -7.61,-2.071 -15.05,-3.098 -22.32,-3.098 h -94.94 z m 352.3,-317.539 h 72.13 l 126.6,370.469 h -65.9 l -94.95,-293.156 h -1.04 l -92.88,293.156 h -67.45 z m 189.9,314.43 h 117.26 v -314.43 h 64.86 v 314.43 h 117.78 v 56.039 h -299.9 z m 271.36,-314.43 h 72.13 v 70.051 h -72.13 z m 271.36,0 h 253.21 v 56.032 h -188.34 v 314.437 h -64.87 z m 204.44,314.43 h 117.25 v -314.43 h 64.87 v 314.43 h 117.78 v 56.039 h -299.9 z m 332.58,-314.43 h 153.58 c 28.36,0 52.93,4.84 73.68,14.532 20.75,9.679 37.7,22.91 50.85,39.687 13.14,16.774 22.91,36.402 29.31,58.891 6.39,22.48 9.6,46.519 9.6,72.121 0,25.601 -3.21,49.629 -9.6,72.121 -6.4,22.48 -16.17,42.109 -29.31,58.898 -13.15,16.77 -30.1,30 -50.85,39.692 -20.75,9.668 -45.32,14.527 -73.68,14.527 h -153.58 z m 64.86,317.539 h 63.82 c 25.24,0 45.92,-3.367 62,-10.117 16.08,-6.742 28.71,-16.082 37.87,-28.019 9.17,-11.934 15.39,-25.934 18.68,-42.024 3.28,-16.078 4.93,-33.468 4.93,-52.148 0,-18.68 -1.65,-36.051 -4.93,-52.149 -3.29,-16.082 -9.51,-30.082 -18.68,-42.019 -9.16,-11.934 -21.79,-21.281 -37.87,-28.024 -16.08,-6.738 -36.76,-10.109 -62,-10.109 h -63.82 z M 6647.88,369.859 H 6720 v 70.051 h -72.12 v -70.051" style="fill:#201e1e;fill-opacity:1;fill-rule:nonzero;stroke:none" id="path12"></path><path d="m 2395.85,1776.57 c 0,14.71 -0.02,25.53 -1.08,33.54 h -412.36 c -3.08,-3.61 -6.04,-7.63 -8.89,-12.2 -85.65,-137.3 -172.93,-273.58 -259.16,-410.52 -86.09,-136.73 -171.43,-273.94 -257.49,-410.687 -18.09,-28.719 -36.02,-56.668 -48.45,-87.039 V 384.48 c 1.12,-4.269 2.34,-9.058 3.59,-14.621 16.22,15.2 156.28,190.563 219.26,267.711 12.66,15.52 35.13,31.149 53.9,32.219 105.2,5.992 210.64,7.871 316.01,10.43 42.32,1.031 50.99,-8.149 50.52,-50.258 -0.79,-69.941 -2.29,-139.859 -2.88,-209.781 -0.19,-24.11 0.35,-47.559 35.59,-47.211 92.1,0.922 184.22,1.332 276.3,-0.09 27.07,-0.418 34.91,9.492 34.43,34.891 -0.95,49.871 0.66,99.789 0.67,149.691 0.09,406.367 0.07,812.739 0.04,1219.109 M 2036.69,899.824 h -210.51 l 210.51,370.016 V 899.824" style="fill:#201e1e;fill-opacity:1;fill-rule:nonzero;stroke:none" id="path14"></path><path d="m 977.164,1810.11 c -1.637,-5.76 -2.355,-12.65 -2.301,-20.75 1.067,-150.95 0.739,-301.9 0.606,-452.85 -0.266,-311.88 -1.231,-623.772 -0.457,-935.658 0.093,-39.782 -16.383,-65.352 -51.598,-75.063 -34.684,-9.57 -71.281,-14.008 -107.309,-16.289 -27.164,-1.711 -41.027,-9.23 -40.671,-38.781 0.949,-78.77 1.07,-157.578 -0.168,-236.3401 C 774.828,7.17969 787.035,0.898438 811.355,0.28125 914.723,-2.37891 1014.32,13.8008 1109.3,55.5781 1197.88,94.5586 1269.53,172.609 1289.32,273.16 V 1810.11 H 977.164" style="fill:#201e1e;fill-opacity:1;fill-rule:nonzero;stroke:none" id="path16"></path><path d="M 3271.06,1807.93 2857.83,1301.3 v 505.96 c -0.07,0.22 -0.12,0.45 -0.18,0.67 h -333.57 c -0.58,-2.57 -0.98,-5.36 -1.2,-8.37 v -262.17 c 0.32,-375.3 0.37,-750.609 0.15,-1125.91 -0.01,-28.492 7.67,-42.332 39.88,-41.589 83.19,1.929 166.45,0.75 249.68,0.699 49.15,-0.039 48.82,-0.141 48.56,48.422 -0.53,99.879 -0.79,199.769 -0.89,299.668 -0.03,32.34 4.09,61.84 26.53,89.609 123.1,152.301 244.54,305.941 365.97,459.581 126.91,160.58 253.21,321.64 379.65,482.58 14.48,18.43 28.58,37.21 43.91,57.48 h -405.26" style="fill:#201e1e;fill-opacity:1;fill-rule:nonzero;stroke:none" id="path18"></path><path d="m 3971.57,1428.64 h 64.86 v 142.17 h 98.58 c 26.29,0 47.73,3.71 64.34,11.16 16.61,7.43 29.4,16.86 38.39,28.27 9,11.42 15.13,23.78 18.42,37.1 3.28,13.31 4.93,25.69 4.93,37.1 0,11.42 -1.65,23.86 -4.93,37.36 -3.29,13.49 -9.42,25.94 -18.42,37.36 -8.99,11.41 -21.78,20.92 -38.39,28.54 -16.61,7.6 -38.05,11.41 -64.34,11.41 h -163.44 z m 64.86,317.55 h 95.98 c 8.65,0 16.78,-0.87 24.4,-2.6 7.59,-1.73 14.34,-4.93 20.23,-9.6 5.88,-4.67 10.55,-10.98 14,-18.94 3.46,-7.96 5.2,-17.98 5.2,-30.09 0,-11.76 -2,-21.53 -5.97,-29.32 -3.98,-7.78 -9.17,-14 -15.56,-18.68 -6.41,-4.66 -13.41,-8.04 -21.02,-10.11 -7.62,-2.08 -15.05,-3.12 -22.31,-3.12 h -94.95 z m 270.84,-317.55 h 64.86 v 152.55 h 95.47 c 14.87,0 27.06,-1.91 36.58,-5.71 9.51,-3.81 17.03,-9.78 22.57,-17.9 5.53,-8.13 9.33,-18.34 11.41,-30.61 2.07,-12.29 3.11,-26.91 3.11,-43.85 0,-9 0.44,-18.33 1.31,-28.02 0.85,-9.69 3.71,-18.5 8.55,-26.46 h 69.53 c -6.92,7.61 -12.03,20.32 -15.31,38.14 -3.29,17.81 -4.93,37.61 -4.93,59.41 0,14.52 -1.81,26.63 -5.44,36.32 -3.63,9.68 -8.22,17.55 -13.75,23.6 -5.54,6.05 -11.5,10.46 -17.9,13.24 -6.41,2.76 -12.37,4.49 -17.9,5.19 v 1.03 c 3.11,1.04 8.04,3.12 14.78,6.23 6.74,3.11 13.58,8.21 20.49,15.31 6.93,7.08 12.98,16.42 18.17,28.02 5.18,11.58 7.78,26.2 7.78,43.84 0,31.47 -10.2,56.03 -30.61,73.68 -20.41,17.64 -51.03,26.46 -91.84,26.46 h -176.93 z m 64.86,317.55 h 105.32 c 8.31,0 16.35,-0.7 24.13,-2.08 7.79,-1.38 14.7,-4.15 20.75,-8.31 6.06,-4.14 10.81,-9.94 14.28,-17.37 3.45,-7.45 5.19,-17.05 5.19,-28.8 0,-19.72 -5.37,-34.5 -16.09,-44.36 -10.73,-9.86 -26.46,-14.79 -47.21,-14.79 h -106.37 z m 290.04,-317.55 h 270.33 v 56.04 h -205.48 v 108.44 h 186.8 v 52.93 h -186.8 v 97.02 h 201.84 v 56.04 h -266.69 z m 631.44,252.69 c -2.07,20.05 -7.44,37.87 -16.08,53.44 -8.65,15.57 -19.97,28.8 -33.99,39.69 -14.01,10.9 -30.18,19.2 -48.51,24.91 -18.33,5.71 -37.87,8.56 -58.63,8.56 -27.68,0 -52.49,-5.18 -74.46,-15.57 -21.97,-10.37 -40.55,-24.38 -55.77,-42.02 -15.23,-17.64 -26.9,-38.23 -35.03,-61.75 -8.13,-23.53 -12.18,-48.43 -12.18,-74.71 0,-26.65 4.05,-51.72 12.18,-75.24 8.13,-23.53 19.8,-44.1 35.03,-61.75 15.22,-17.64 33.8,-31.56 55.77,-41.76 21.97,-10.2 46.78,-15.31 74.46,-15.31 22.48,0 43.06,3.63 61.74,10.9 18.69,7.26 34.94,17.55 48.77,30.87 13.84,13.31 24.83,29.14 32.95,47.47 8.13,18.34 12.89,38.57 14.27,60.71 h -63.29 c -1.4,-13.48 -4.34,-26.12 -8.83,-37.88 -4.5,-11.76 -10.72,-22.05 -18.68,-30.87 -7.96,-8.82 -17.47,-15.74 -28.54,-20.75 -11.07,-5.02 -23.86,-7.53 -38.39,-7.53 -19.72,0 -36.75,3.98 -51.11,11.94 -14.35,7.95 -26.03,18.59 -35.02,31.91 -9,13.31 -15.65,28.45 -19.98,45.4 -4.32,16.95 -6.48,34.24 -6.48,51.89 0,17.64 2.16,34.93 6.48,51.88 4.33,16.94 10.98,32.08 19.98,45.4 8.99,13.31 20.67,23.95 35.02,31.91 14.36,7.96 31.39,11.93 51.11,11.93 13.49,0 25.34,-1.81 35.54,-5.45 10.2,-3.62 19.11,-8.73 26.72,-15.3 7.61,-6.57 13.83,-14.36 18.68,-23.35 4.85,-9 8.65,-18.85 11.42,-29.57 z m 49.29,-252.69 h 64.85 v 370.47 h -64.85 z m 111.55,123.49 c 0.34,-22.83 4.67,-42.64 12.97,-59.41 8.3,-16.78 19.38,-30.53 33.21,-41.24 13.83,-10.73 30.1,-18.69 48.77,-23.88 18.69,-5.18 38.57,-7.78 59.67,-7.78 18.33,0 36.33,2.17 53.97,6.49 17.64,4.32 33.38,11.15 47.21,20.49 13.83,9.34 24.99,21.36 33.47,36.06 8.48,14.7 12.72,32.43 12.72,53.19 0,9.67 -1.48,19.36 -4.42,29.05 -2.94,9.68 -7.44,18.76 -13.48,27.24 -6.06,8.48 -13.59,16 -22.58,22.57 -9,6.57 -19.54,11.76 -31.65,15.57 -4.85,1.38 -12.89,3.54 -24.12,6.48 -11.25,2.94 -22.76,5.97 -34.51,9.09 -11.76,3.11 -22.4,5.96 -31.91,8.56 -9.51,2.59 -14.96,4.06 -16.35,4.41 -13.14,3.8 -23.78,9.42 -31.9,16.86 -8.14,7.44 -12.2,17.72 -12.2,30.87 0,9.34 2.16,17.12 6.48,23.35 4.33,6.22 9.78,11.15 16.35,14.79 6.56,3.63 13.83,6.22 21.79,7.78 7.96,1.56 15.74,2.33 23.35,2.33 22.48,0 41,-4.93 55.52,-14.78 14.53,-9.86 22.65,-26.72 24.39,-50.59 h 64.85 c 0,19.37 -3.8,36.4 -11.41,51.11 -7.61,14.69 -17.9,27.06 -30.87,37.1 -12.97,10.03 -28.02,17.55 -45.14,22.57 -17.13,5 -35.38,7.52 -54.74,7.52 -16.6,0 -33.04,-2.16 -49.29,-6.49 -16.27,-4.33 -30.8,-10.98 -43.58,-19.98 -12.81,-9 -23.1,-20.32 -30.88,-33.98 -7.79,-13.67 -11.67,-29.83 -11.67,-48.51 0,-9.69 1.3,-19.2 3.88,-28.54 2.6,-9.34 7.02,-18.16 13.24,-26.46 6.23,-8.3 14.61,-15.83 25.16,-22.57 10.55,-6.75 23.78,-12.2 39.7,-16.35 25.59,-6.91 47.12,-12.53 64.59,-16.85 17.47,-4.34 32.77,-8.92 45.93,-13.76 7.59,-2.77 14.61,-7.52 21,-14.27 6.4,-6.74 9.6,-17.21 9.6,-31.39 0,-6.92 -1.38,-13.75 -4.15,-20.49 -2.77,-6.75 -7.26,-12.72 -13.48,-17.9 -6.23,-5.19 -14.36,-9.43 -24.39,-12.71 -10.04,-3.3 -22.15,-4.94 -36.32,-4.94 -13.15,0 -25.35,1.47 -36.58,4.41 -11.25,2.94 -21.19,7.61 -29.83,14.02 -8.66,6.39 -15.4,14.6 -20.25,24.64 -4.84,10.03 -7.25,22.14 -7.25,36.32 z m 348.16,-123.49 h 64.86 v 370.47 h -64.86 z m 342.71,314.43 c 14.35,-7.96 26.02,-18.6 35.02,-31.91 8.99,-13.32 15.65,-28.46 19.97,-45.4 4.33,-16.95 6.49,-34.24 6.49,-51.88 0,-17.65 -2.16,-34.94 -6.49,-51.89 -4.32,-16.95 -10.98,-32.09 -19.97,-45.4 -9,-13.32 -20.67,-23.96 -35.02,-31.91 -14.36,-7.96 -31.39,-11.94 -51.11,-11.94 -19.72,0 -36.76,3.98 -51.1,11.94 -14.37,7.95 -26.04,18.59 -35.03,31.91 -9,13.31 -15.66,28.45 -19.98,45.4 -4.33,16.95 -6.48,34.24 -6.48,51.89 0,17.64 2.15,34.93 6.48,51.88 4.32,16.94 10.98,32.08 19.98,45.4 8.99,13.31 20.66,23.95 35.03,31.91 14.34,7.96 31.38,11.93 51.1,11.93 19.72,0 36.75,-3.97 51.11,-11.93 m -125.56,49.29 c -21.98,-10.37 -40.57,-24.38 -55.79,-42.02 -15.22,-17.64 -26.9,-38.23 -35.01,-61.75 -8.14,-23.53 -12.2,-48.43 -12.2,-74.71 0,-26.65 4.06,-51.72 12.2,-75.24 8.11,-23.53 19.79,-44.1 35.01,-61.75 15.22,-17.64 33.81,-31.56 55.79,-41.76 21.95,-10.2 46.77,-15.31 74.45,-15.31 27.67,0 52.48,5.11 74.45,15.31 21.97,10.2 40.56,24.12 55.78,41.76 15.22,17.65 26.9,38.22 35.02,61.75 8.13,23.52 12.2,48.59 12.2,75.24 0,26.28 -4.07,51.18 -12.2,74.71 -8.12,23.52 -19.8,44.11 -35.02,61.75 -15.22,17.64 -33.81,31.65 -55.78,42.02 -21.97,10.39 -46.78,15.57 -74.45,15.57 -27.68,0 -52.5,-5.18 -74.45,-15.57 m 298.07,-363.72 h 61.75 v 272.41 h 1.55 l 168.64,-272.41 h 68.48 v 370.47 h -61.74 v -272.92 h -1.03 l -169.15,272.92 h -68.5 v -370.47" style="fill:#201e1e;fill-opacity:1;fill-rule:nonzero;stroke:none" id="path20"></path><path d="m 3556.55,903.66 h 64.86 v 142.17 h 98.58 c 26.29,0 47.73,3.71 64.34,11.16 16.61,7.43 29.4,16.86 38.39,28.28 9,11.41 15.13,23.77 18.42,37.09 3.29,13.32 4.93,25.69 4.93,37.1 0,11.42 -1.64,23.86 -4.93,37.36 -3.29,13.49 -9.42,25.94 -18.42,37.36 -8.99,11.41 -21.78,20.92 -38.39,28.53 -16.61,7.61 -38.05,11.42 -64.34,11.42 h -163.44 z m 64.86,317.55 h 95.99 c 8.64,0 16.77,-0.87 24.39,-2.6 7.59,-1.73 14.34,-4.93 20.23,-9.6 5.88,-4.67 10.55,-10.98 14.01,-18.94 3.45,-7.96 5.19,-17.99 5.19,-30.09 0,-11.77 -1.99,-21.53 -5.97,-29.32 -3.98,-7.78 -9.17,-14 -15.56,-18.68 -6.41,-4.66 -13.41,-8.04 -21.02,-10.12 -7.62,-2.07 -15.05,-3.11 -22.31,-3.11 h -94.95 z m 270.84,-317.55 h 64.86 v 152.55 h 95.47 c 14.87,0 27.06,-1.91 36.58,-5.71 9.51,-3.82 17.03,-9.78 22.57,-17.9 5.53,-8.13 9.33,-18.34 11.41,-30.62 2.07,-12.277 3.12,-26.898 3.12,-43.839 0,-9 0.43,-18.336 1.3,-28.02 0.85,-9.687 3.71,-18.504 8.55,-26.461 h 69.53 c -6.92,7.606 -12.03,20.32 -15.31,38.137 -3.29,17.812 -4.92,37.617 -4.92,59.413 0,14.52 -1.82,26.63 -5.45,36.32 -3.63,9.68 -8.22,17.55 -13.75,23.6 -5.54,6.05 -11.5,10.46 -17.9,13.23 -6.41,2.77 -12.37,4.5 -17.9,5.19 v 1.04 c 3.11,1.04 8.04,3.12 14.79,6.23 6.74,3.11 13.57,8.21 20.49,15.31 6.92,7.08 12.97,16.42 18.16,28.02 5.19,11.58 7.78,26.2 7.78,43.84 0,31.47 -10.2,56.03 -30.6,73.68 -20.42,17.64 -51.04,26.46 -91.85,26.46 h -176.93 z m 64.86,317.55 h 105.32 c 8.31,0 16.35,-0.7 24.13,-2.08 7.79,-1.39 14.7,-4.15 20.75,-8.31 6.06,-4.14 10.82,-9.94 14.28,-17.37 3.45,-7.45 5.19,-17.05 5.19,-28.8 0,-19.72 -5.37,-34.5 -16.09,-44.37 -10.73,-9.85 -26.46,-14.78 -47.21,-14.78 h -106.37 z m 498.88,-3.12 c 14.35,-7.96 26.02,-18.6 35.03,-31.91 8.99,-13.32 15.64,-28.45 19.97,-45.4 4.32,-16.95 6.49,-34.25 6.49,-51.88 0,-17.65 -2.17,-34.95 -6.49,-51.89 -4.33,-16.95 -10.98,-32.09 -19.97,-45.401 -9.01,-13.324 -20.68,-23.957 -35.03,-31.914 -14.36,-7.957 -31.39,-11.929 -51.11,-11.929 -19.71,0 -36.75,3.972 -51.11,11.929 -14.36,7.957 -26.03,18.59 -35.02,31.914 -8.99,13.311 -15.65,28.451 -19.97,45.401 -4.34,16.94 -6.49,34.24 -6.49,51.89 0,17.63 2.15,34.93 6.49,51.88 4.32,16.95 10.98,32.08 19.97,45.4 8.99,13.31 20.66,23.95 35.02,31.91 14.36,7.96 31.4,11.93 51.11,11.93 19.72,0 36.75,-3.97 51.11,-11.93 m -125.56,49.29 c -21.97,-10.37 -40.57,-24.39 -55.78,-42.03 -15.23,-17.64 -26.9,-38.22 -35.02,-61.74 -8.14,-23.53 -12.2,-48.43 -12.2,-74.71 0,-26.64 4.06,-51.72 12.2,-75.24 8.12,-23.527 19.79,-44.105 35.02,-61.746 15.21,-17.641 33.81,-31.566 55.78,-41.766 21.96,-10.203 46.78,-15.308 74.45,-15.308 27.67,0 52.49,5.105 74.46,15.308 21.96,10.2 40.55,24.125 55.78,41.766 15.21,17.641 26.89,38.219 35.02,61.746 8.12,23.52 12.19,48.6 12.19,75.24 0,26.28 -4.07,51.18 -12.19,74.71 -8.13,23.52 -19.81,44.1 -35.02,61.74 -15.23,17.64 -33.82,31.66 -55.78,42.03 -21.97,10.38 -46.79,15.57 -74.46,15.57 -27.67,0 -52.49,-5.19 -74.45,-15.57 M 4631.1,903.66 h 153.59 c 28.36,0 52.92,4.84 73.68,14.528 20.75,9.679 37.69,22.91 50.84,39.695 13.14,16.773 22.92,36.398 29.32,58.887 6.39,22.48 9.6,46.52 9.6,72.13 0,25.59 -3.21,49.63 -9.6,72.12 -6.4,22.48 -16.18,42.11 -29.32,58.89 -13.15,16.77 -30.09,30 -50.84,39.69 -20.76,9.68 -45.32,14.53 -73.68,14.53 H 4631.1 Z m 64.86,317.55 h 63.83 c 25.24,0 45.91,-3.38 62,-10.12 16.08,-6.75 28.71,-16.09 37.87,-28.02 9.16,-11.94 15.39,-25.94 18.68,-42.03 3.28,-16.08 4.93,-33.47 4.93,-52.14 0,-18.69 -1.65,-36.07 -4.93,-52.15 -3.29,-16.09 -9.52,-30.09 -18.68,-42.027 -9.16,-11.934 -21.79,-21.278 -37.87,-28.02 -16.09,-6.746 -36.76,-10.121 -62,-10.121 h -63.83 z m 295.22,-184.2 c 0,-23.87 3.63,-44.623 10.9,-62.264 7.27,-17.641 17.56,-32.43 30.87,-44.363 13.32,-11.938 29.32,-20.84 48,-26.723 18.68,-5.879 39.43,-8.82 62.26,-8.82 22.83,0 43.59,2.941 62.27,8.82 18.67,5.883 34.67,14.785 47.99,26.723 13.32,11.933 23.61,26.722 30.88,44.363 7.25,17.641 10.88,38.394 10.88,62.264 v 237.12 h -64.85 v -215.85 c 0,-12.45 -0.6,-25.08 -1.82,-37.87 -1.22,-12.81 -4.66,-24.312 -10.38,-34.508 -5.7,-10.211 -14.35,-18.601 -25.93,-25.164 -11.6,-6.578 -27.94,-9.863 -49.04,-9.863 -21.1,0 -37.45,3.285 -49.03,9.863 -11.59,6.563 -20.23,14.953 -25.94,25.164 -5.71,10.196 -9.18,21.698 -10.38,34.508 -1.22,12.79 -1.82,25.42 -1.82,37.87 v 215.85 h -64.86 z m 683.34,119.34 c -2.08,20.05 -7.45,37.87 -16.08,53.44 -8.65,15.56 -19.98,28.8 -34,39.69 -14,10.9 -30.17,19.2 -48.5,24.91 -18.34,5.7 -37.88,8.56 -58.64,8.56 -27.67,0 -52.49,-5.19 -74.45,-15.57 -21.97,-10.37 -40.56,-24.39 -55.78,-42.03 -15.22,-17.64 -26.9,-38.22 -35.03,-61.74 -8.12,-23.53 -12.19,-48.43 -12.19,-74.71 0,-26.64 4.07,-51.72 12.19,-75.24 8.13,-23.527 19.81,-44.105 35.03,-61.746 15.22,-17.641 33.81,-31.566 55.78,-41.766 21.96,-10.203 46.78,-15.308 74.45,-15.308 22.49,0 43.07,3.633 61.74,10.898 18.68,7.262 34.94,17.555 48.78,30.867 13.83,13.317 24.82,29.141 32.95,47.477 8.13,18.338 12.88,38.568 14.27,60.708 h -63.3 c -1.39,-13.49 -4.34,-26.12 -8.83,-37.88 -4.49,-11.758 -10.72,-22.047 -18.67,-30.871 -7.97,-8.816 -17.47,-15.742 -28.54,-20.75 -11.07,-5.019 -23.87,-7.523 -38.4,-7.523 -19.71,0 -36.75,3.972 -51.11,11.929 -14.35,7.957 -26.02,18.59 -35.02,31.914 -8.99,13.311 -15.65,28.451 -19.97,45.401 -4.33,16.94 -6.49,34.24 -6.49,51.89 0,17.63 2.16,34.93 6.49,51.88 4.32,16.95 10.98,32.08 19.97,45.4 9,13.31 20.67,23.95 35.02,31.91 14.36,7.96 31.4,11.93 51.11,11.93 13.49,0 25.34,-1.81 35.54,-5.45 10.21,-3.62 19.11,-8.73 26.73,-15.3 7.6,-6.57 13.83,-14.36 18.67,-23.35 4.85,-9 8.64,-18.85 11.42,-29.57 z m 14,61.74 h 117.26 V 903.66 h 64.85 v 314.43 h 117.79 v 56.04 h -299.9 z m 310.27,-190.94 c 0.34,-22.83 4.68,-42.638 12.98,-59.412 8.3,-16.781 19.36,-30.527 33.2,-41.246 13.83,-10.726 30.1,-18.679 48.77,-23.871 18.68,-5.183 38.56,-7.781 59.68,-7.781 18.32,0 36.32,2.164 53.95,6.488 17.65,4.32 33.38,11.152 47.22,20.492 13.83,9.34 24.99,21.36 33.47,36.063 8.46,14.695 12.71,32.426 12.71,53.187 0,9.67 -1.47,19.36 -4.41,29.05 -2.94,9.68 -7.44,18.76 -13.49,27.24 -6.06,8.48 -13.58,16 -22.58,22.57 -8.99,6.57 -19.54,11.76 -31.65,15.57 -4.84,1.38 -12.88,3.54 -24.12,6.48 -11.25,2.94 -22.75,5.97 -34.5,9.09 -11.77,3.11 -22.4,5.96 -31.91,8.56 -9.53,2.59 -14.98,4.06 -16.35,4.4 -13.15,3.81 -23.78,9.43 -31.91,16.87 -8.13,7.44 -12.19,17.72 -12.19,30.87 0,9.34 2.15,17.12 6.48,23.35 4.33,6.22 9.78,11.15 16.35,14.79 6.56,3.63 13.83,6.22 21.8,7.78 7.94,1.56 15.73,2.33 23.34,2.33 22.48,0 40.99,-4.93 55.52,-14.78 14.52,-9.86 22.65,-26.72 24.39,-50.59 h 64.85 c 0,19.37 -3.81,36.4 -11.42,51.11 -7.6,14.69 -17.9,27.06 -30.86,37.1 -12.97,10.02 -28.02,17.55 -45.15,22.57 -17.12,5 -35.37,7.52 -54.74,7.52 -16.6,0 -33.03,-2.16 -49.28,-6.49 -16.27,-4.33 -30.8,-10.98 -43.59,-19.98 -12.8,-9 -23.09,-20.32 -30.88,-33.98 -7.78,-13.67 -11.67,-29.83 -11.67,-48.51 0,-9.69 1.3,-19.2 3.89,-28.54 2.6,-9.34 7.01,-18.16 13.23,-26.46 6.23,-8.3 14.61,-15.83 25.17,-22.57 10.54,-6.75 23.78,-12.2 39.7,-16.35 25.58,-6.92 47.11,-12.53 64.59,-16.86 17.47,-4.33 32.77,-8.91 45.92,-13.75 7.6,-2.78 14.6,-7.52 21.01,-14.27 6.4,-6.74 9.6,-17.21 9.6,-31.39 0,-6.921 -1.39,-13.749 -4.15,-20.495 -2.78,-6.742 -7.26,-12.715 -13.49,-17.899 -6.23,-5.187 -14.35,-9.429 -24.38,-12.711 -10.04,-3.297 -22.15,-4.929 -36.33,-4.929 -13.15,0 -25.34,1.468 -36.57,4.406 -11.25,2.937 -21.2,7.609 -29.84,14.016 -8.65,6.39 -15.4,14.605 -20.24,24.64 -4.85,10.032 -7.26,22.132 -7.26,36.322 h -64.86" style="fill:#201e1e;fill-opacity:1;fill-rule:nonzero;stroke:none" id="path22"></path><path d="m 311.328,922.152 190.637,208.038 c 26,28.38 0,56.76 0,56.76 l -2.57,2.79 c -26,28.37 -52,0 -52,0 L 295.348,1023.81 v 223.23 c 27.09,0.17 51.859,6.3 74.3,18.41 22.754,12.28 40.473,32.16 53.157,59.65 12.679,27.5 19.019,63.6 19.019,108.33 0,59.01 -12.847,103.87 -38.543,134.57 -25.699,30.7 -63.238,46.05 -112.613,46.05 h -20.496 c -1.774,0.27 -3.664,0.43 -5.695,0.43 h -15.434 c 0,0 -30.867,0 -30.867,-33.68 V 1023.81 L 66.1211,1189.74 c 0,0 -26,28.37 -52,0 l -2.5625,-2.79 c 0,0 -26.0039,-28.38 0,-56.76 L 202.191,922.152 11.5586,714.109 c -26.0039,-28.371 0,-56.75 0,-56.75 l 2.5625,-2.8 c 26,-28.368 52,0 52,0 L 218.176,820.492 V 596.82 c -26.621,-0.34 -50.996,-6.449 -73.11,-18.39 -22.753,-12.27 -40.472,-32.168 -53.1519,-59.66 -12.6797,-27.5 -19.0235,-63.598 -19.0235,-108.321 0,-59.019 12.8516,-103.871 38.5474,-134.578 25.695,-30.699 63.23,-46.051 112.609,-46.051 h 24.98 c 0.004,0 0.012,0 0.016,0 h 15.434 c 0,0 30.871,0 30.871,33.692 v 556.98 L 447.395,654.559 c 0,0 26,-28.368 52,0 l 2.57,2.8 c 0,0 26,28.379 0,56.75 z m -15.621,580.138 c 0,0 0,33.69 4.867,33.41 4.871,-0.27 12.899,-1.47 19.192,-3.3 6.297,-1.83 12.761,-6.74 19.398,-14.7 6.633,-7.98 11.633,-19.34 14.992,-34.1 3.36,-14.75 5.032,-32.76 5.032,-54.03 0,-35.92 -4.778,-61.71 -14.352,-77.39 -9.578,-15.66 -25.953,-24.6 -49.129,-26.8 z M 214.141,308.18 c -4.868,0.269 -12.891,1.461 -19.192,3.289 -6.297,1.84 -12.761,6.742 -19.398,14.722 -6.629,7.969 -11.625,19.329 -14.988,34.09 -3.36,14.75 -5.036,32.758 -5.036,54.02 0,35.918 4.782,61.719 14.356,77.39 9.457,15.481 25.562,24.368 48.293,26.707 V 322 c -0.672,-7.359 -1.871,-13.949 -4.035,-13.82" style="fill:#d02b2b;fill-opacity:1;fill-rule:nonzero;stroke:none" id="path24"></path></g></g></svg>